<svg width="240" height="60" viewBox="0 0 240 60" fill="none" xmlns="http://www.w3.org/2000/svg">
  <defs>
    <linearGradient id="meeoGradLogo" x1="0%" y1="0%" x2="100%" y2="100%">
      <stop offset="0%" stop-color="#6355FF" />
      <stop offset="100%" stop-color="#412ce7" />
    </linearGradient>
    <linearGradient id="handleGradLogo" x1="0%" y1="0%" x2="100%" y2="0%">
      <stop offset="0%" stop-color="#fd6a49" />
      <stop offset="100%" stop-color="#FF8F73" />
    </linearGradient>
  </defs>

  <g transform="translate(4, 5) scale(0.1)">
    <!-- Shopping Bag Handle -->
    <path
      d="M196 150 C196 114, 304 114, 304 150"
      fill="none"
      stroke="url(#handleGradLogo)"
      stroke-width="28"
      stroke-linecap="round"
    />

    <!-- Architectural Meeo M bag body -->
    <path
      d="M 120 376 
         L 120 206 
         C 120 184, 142 168, 164 178 
         L 250 256 
         L 336 178 
         C 358 168, 380 184, 380 206 
         L 380 376 
         C 380 388, 370 398, 356 398 
         L 342 398 
         C 328 398, 318 388, 318 376 
         L 318 268 
         L 266 314 
         C 256 322, 244 322, 234 314 
         L 182 268 
         L 182 376 
         C 182 388, 172 398, 158 398 
         L 144 398 
         C 130 398, 120 388, 120 376 Z"
      fill="url(#meeoGradLogo)"
    />
  </g>

  <!-- Typography: meeo. -->
  <text x="64" y="38" font-family="-apple-system, BlinkMacSystemFont, 'Segoe UI', Roboto, sans-serif" font-size="28" font-weight="800" fill="#131b2e" letter-spacing="-0.5">
    meeo<tspan fill="#fd6a49">.</tspan>
  </text>
</svg>
